<?xml version="1.0"?><svg xmlns="http://www.w3.org/2000/svg" viewBox="0 0 128 128"><path d="m117.05 26.49c-5.65-14.44-13.39-21.34-28.45-22.18s-57.11-.42-69.25 6.9c-12.13 7.32-13.39 20.92-13.6 36.19 0 0 1.26 39.96 2.3 50.84 1.05 10.88 10.46 24.48 21.76 24.9s43.47 1.7 65.86.02c22.39-1.67 24.69-10.46 25.94-16.32 1.26-5.86 1.09-65.92-4.56-80.36zm-2.09 72.49c-1.41 7.06-5.02 12.4-20.08 14.12-15.06 1.73-50.37 4.55-61.35 3.61s-19.93-7.37-21.5-21.18-2.2-55.23-2.2-55.23c.31-12.24 4.71-27.14 20.4-29.5 15.69-2.35 46.44-4.08 60.56-2.67s24.01 12.71 24.48 31.07 1.1 52.72-.31 59.78zm-83.68-80.34c.94-.63.82-4.05-1.15-3.77-2.2.31-6.9 2.72-9.73 5.96-2.82 3.24-3.66 8.05-3.24 9.83s3.14 1.88 3.14-.63.31-4.5 3.45-7.53 6.59-3.24 7.53-3.87zm-16.84 20.61c-.1 4.18.84 10.56 2.3 10.56s1.99-8.79 1.67-10.88c-.31-2.09-3.93-1.57-3.98.31zm89.54 43.09c6.49-12.97-5.33-26.57-5.33-26.57s5.13-5.13.52-19.25c-4.6-14.12-23.01-5.86-23.01-5.86-1.67-5.65-6.9-12.03-21.34-9.52s-14.77 16.12-15.06 16c-4.81-1.88-16.11 1.46-17.78 15.79s7.43 20.92 7.43 20.92-6.8 9.83.63 22.7 23.43 4.81 23.43 4.81 6.28 8.26 19.98 6.17 14.33-15.9 14.33-15.9 9.73 3.66 16.21-9.31zm-26.05-48.53c5.44-2.09 16.11-3.03 17.68 6.8s-.84 12.13-.84 12.13-11.72-7.32-13.7-8.58c-1.99-1.26-4.08-1.67-7.01.21s-19.25 11.72-19.25 11.72c0-.42-.1-9.21-.1-9.21s17.78-10.98 23.22-13.08zm-13.28 20.71 8.16 4.29.1 9.52-9.21 5.96-8.68-5.44-.21-8.37c.31 0 9.83-5.96 9.83-5.96zm-21.55-17.37c.63-4.29 5.96-11.61 15.17-12.97s13.18 3.97 14.23 7.64c0 0-18.93 11.72-19.98 12.24s-1.99 1.36-1.88 2.72c.1 1.36.1 19.46.1 19.46l-8.37-5.02c0-.31.1-19.77.73-24.06zm-17.16 15.8c.94-7.01 6.49-12.87 13.08-12.13 0 0-.73 18.51-.73 20.29s.94 3.24 2.82 4.39 18.72 11.19 18.72 11.19l-9.21 6.38s-11.3-7.11-17.26-11.09-8.37-12.03-7.43-19.04zm25.21 42.99c-6.38 3.14-13.39 2.3-17.68-3.35s-.21-15.59.1-15.59 15.17 9 16.42 9.62c1.26.63 2.61-.42 3.24-1.15s19.77-12.03 19.77-12.03l-.31 8.58s-15.17 10.77-21.55 13.91zm33.37-5.86c-.42 3.66-5.33 11.61-12.97 12.76s-13.49-3.98-13.49-3.98 17.99-11.61 18.41-13.18 0-24.58 0-24.58 8.16 5.54 8.37 6.28c.21.73.1 19.04-.31 22.7zm.21-28.13c-2.09-1.57-16.11-9.41-16.11-9.41s8.47-5.65 9.21-5.65 16.32 9.21 19.77 14.33c3.45 5.13 4.18 12.97 1.67 18.1s-5.96 6.49-10.46 6.69c0 0-.42-15.27-.31-17.89.1-2.61-1.67-4.6-3.77-6.17zm2.62 43.93c.86 1.26 4.16 5.02 4.86 5.26s1.88.16 2.04-.39-2.82-6.04-3.84-6.9-3.54 1.34-3.06 2.04zm6.74-8.16c-1.26-.86-3.47.9-2.98 2.12.47 1.18 7.14 9.65 8.08 10.2s2.12-.47 2.12-1.41-5.96-10.04-7.22-10.91zm6.12-3.3c-1.26-.86-3.47.9-2.98 2.12.47 1.18 7.14 9.65 8.08 10.2s2.12-.47 2.12-1.41-5.96-10.04-7.22-10.9zm5.89-2.27c-1.26-.86-3.47.9-2.98 2.12.47 1.18 5.02 6.67 5.96 7.22s2.12-.47 2.12-1.41-3.84-7.06-5.1-7.92zm-.48-3.14c.47 1.18 3.22 4.08 4.16 4.63s1.26-1.49 1.26-2.43-1.18-3.45-2.43-4.31c-1.26-.86-3.47.9-2.98 2.12zm4.08-10.04c-.94 0-2.61 1.78-1.8 2.59.71.71 3.69 3.53 4.24 3.37s.63-1.41.39-2.12-1.88-3.84-2.82-3.84zm-.31-17.73c.78.16 1.8-.78 1.8-1.65s-3.53-6.12-4.71-6.83-3.04 1.53-2.43 2.67c.55 1.02 4.55 5.65 5.33 5.81zm1.26-8.63c.63-.16.86-.94.71-2.12-.16-1.18-3.14-5.81-4.47-6.2s-2.88 2.45-2.04 3.53c.55.71 5.18 4.94 5.81 4.79zm-.08-8.86c.71.16.94-1.41.86-2.35s-2.12-3.69-2.98-3.61-1.93 1.98-1.57 2.82c.24.55 2.98 2.98 3.69 3.14z" fill="#1d1d1b"/></svg>